<svg xmlns="http://www.w3.org/2000/svg" width="75" height="67" viewBox="0 0 75 67">
    <g fill="none" fill-rule="evenodd" transform="translate(2 1)">
        <path stroke="#000" stroke-linecap="round" stroke-linejoin="round" stroke-width="3" d="M35.4 7.5c15.7 0 28.6 11.8 30.3 27 .1-1.1.2-2.3.2-3.5C65.9 14.2 52.2.5 35.4.5S4.9 14.2 4.9 31c0 1.2.1 2.4.2 3.5 1.8-15.2 14.7-27 30.3-27z"/>
        <g stroke="#000" stroke-linecap="round" stroke-linejoin="round" stroke-width="3">
            <path d="M5.2 42.5H.1v21.2h18.7C11.6 59.1 6.5 51.4 5.2 42.5zM65.6 42.5c-1.3 8.9-6.4 16.6-13.6 21.2h19.4V42.5h-5.8z"/>
        </g>
        <path stroke="#000" stroke-linecap="round" stroke-linejoin="round" stroke-width="3" d="M19.6 63.8h31.7c8.8-5.4 14.7-15 14.7-26.1C66 20.9 52.3 7.2 35.5 7.2S5 20.9 5 37.7c-.1 11.1 5.8 20.7 14.6 26.1z"/>
        <path fill="#2E9B86" stroke="#000" stroke-linecap="round" stroke-linejoin="round" stroke-width="3" d="M19.6 63.8h31.7c8.8-5.4 14.7-15 14.7-26.1C66 20.9 52.3 7.2 35.5 7.2S5 20.9 5 37.7c-.1 11.1 5.8 20.7 14.6 26.1z"/>
        <circle cx="35.6" cy="38" r="19.6" stroke="#000" stroke-linecap="round" stroke-linejoin="round" stroke-width="3"/>
        <circle cx="35.6" cy="38" r="19.6" fill="#FFF" stroke="#000" stroke-linecap="round" stroke-linejoin="round" stroke-width="3"/>
        <path fill="#000" fill-rule="nonzero" d="M34.8 48.7c-1.9-.1-6.7-.7-6.7-3.4 0-1.2.9-2.4 2.1-2.4 1 0 2.5 1.3 4.5 1.3v-4.6c-5-1.4-6.6-3.3-6.6-6 0-4 3-6.5 6.6-6.8v-1.4c0-.6.3-.9.9-.9.7 0 .9.3.9.9v1.4c1.9.1 5.2.6 5.2 3.1 0 1.1-.8 2.2-2 2.2-1.1 0-2-1.1-3.2-1.1v4.2c3.4.9 6.7 2.5 6.7 6.6 0 4.6-3.8 6.8-6.7 7V50c0 .6-.3.9-.9.9-.7 0-.9-.3-.9-.9v-1.3h.1zm0-17.7c-.9.2-1.6.9-1.6 1.9 0 .9.8 1.5 1.6 1.7V31zm1.8 13.1c1 0 1.7-1 1.7-2 0-1.2-.6-1.8-1.7-2.1v4.1z"/>
    </g>
</svg>
