<svg xmlns="http://www.w3.org/2000/svg" width="96" height="76" viewBox="0 0 96 76">
    <g fill="none" fill-rule="evenodd">
        <path fill="#2E9B86" fill-rule="nonzero" d="M67.5 66.1c-.1 0-.1 0 0 0-7.2-.2-11.9-6.3-16.1-11.8-2.1-2.7-4.3-5.6-6.1-6.7-3-1.7-5.1-.9-11.3 2-2.4 1.1-5.2 2.4-8.6 3.7-14.6 5.5-20-4.6-24.8-13.5-.8-1.6-.2-3.5 1.3-4.4 1.6-.8 3.5-.2 4.4 1.3 5.2 9.7 7.8 13.8 16.8 10.5 3.2-1.2 5.9-2.4 8.2-3.5 6.3-2.9 11.2-5.1 17.2-1.7 3 1.7 5.5 4.9 8.1 8.4 3.4 4.5 6.9 9.1 11 9.2 1.8 0 3.2 1.5 3.2 3.3-.2 1.8-1.6 3.2-3.3 3.2z"/>
        <path stroke="#000" stroke-linecap="round" stroke-linejoin="round" stroke-width="3.058" d="M54.8 58.2L42.4 68.3l4.8-15.2L58.6 36l7.7 5.1z"/>
        <path fill="#FFF" fill-rule="nonzero" stroke="#000" stroke-linecap="round" stroke-linejoin="round" stroke-width="3.058" d="M89.4 6.7c-1.5-3.4-4-5.2-7.6-5.1L47.4 52.8c3.4 0 5.8 1.9 7.6 5.1L89.4 6.7z"/>
        <path stroke="#000" stroke-linecap="round" stroke-linejoin="round" stroke-width="3.058" d="M72.9 44.6l12-17.7M88.4 22.2l5.5-8.5M7.5 62.1c2.2 4.2 4.2 7.8 9.8 5.7 5.6-2.1 7.7-4.2 10.7-2.5 3 1.7 5.4 8.4 9.7 8.5"/>
        <path fill="#FFF" fill-rule="nonzero" stroke="#000" stroke-linecap="round" stroke-linejoin="round" stroke-width="3.058" d="M50.4 48.2c3.3.2 5.7 2.1 7.6 5.1"/>
        <path fill="#FFF" fill-rule="nonzero" stroke="#000" stroke-linecap="round" stroke-linejoin="round" stroke-width="3.019" d="M79.1 5.6c3.3.2 5.7 2.1 7.6 5.1"/>
    </g>
</svg>
